<?xml version="1.0"?>
<svg xmlns="http://www.w3.org/2000/svg" xmlns:xlink="http://www.w3.org/1999/xlink" xmlns:svgjs="http://svgjs.com/svgjs" version="1.1" width="512" height="512" x="0" y="0" viewBox="0 0 512.002 512.002" style="enable-background:new 0 0 512 512" xml:space="preserve" class=""><g transform="matrix(1,0,0,1,-2.842170943040401e-14,0)"><g xmlns="http://www.w3.org/2000/svg"><path d="m493.646 211.137-23.074-3.846c-5.502-24.389-15.035-47.398-28.407-68.568l13.6-19.04c6.367-8.916 5.929-20.028-1.066-27.025l-35.356-35.355c-6.996-6.998-18.109-7.436-27.025-1.066l-19.038 13.598c-21.163-13.371-44.172-22.903-68.57-28.406l-3.846-23.074c-1.801-10.807-9.969-18.355-19.863-18.355h-50.001c-9.894 0-18.062 7.548-19.863 18.355l-3.846 23.074c-24.397 5.503-47.406 15.035-68.569 28.406l-19.038-13.598c-8.915-6.369-20.029-5.93-27.024 1.066l-35.357 35.356c-6.995 6.996-7.434 18.108-1.066 27.025l13.599 19.039c-13.372 21.169-22.905 44.179-28.407 68.569l-23.074 3.845c-10.808 1.801-18.355 9.97-18.355 19.863v50c0 9.895 7.547 18.063 18.355 19.865l23.074 3.846c5.502 24.39 15.035 47.399 28.407 68.568l-13.6 19.041c-6.367 8.916-5.928 20.028 1.067 27.024l35.355 35.355c6.997 6.997 18.109 7.435 27.025 1.066l19.038-13.598c21.163 13.372 44.172 22.903 68.569 28.406l3.846 23.074c1.801 10.807 9.97 18.355 19.863 18.355h50.001c9.894 0 18.062-7.548 19.863-18.355l3.845-23.074c24.397-5.503 47.407-15.035 68.57-28.406l19.038 13.598c8.915 6.369 20.03 5.93 27.024-1.066l35.357-35.356c6.995-6.996 7.433-18.109 1.065-27.025l-13.599-19.039c13.372-21.17 22.905-44.179 28.407-68.568l23.074-3.846c10.808-1.801 18.355-9.969 18.355-19.863v-50.002c.002-9.894-7.545-18.062-18.353-19.863zm-1.645 69.431c-.286.177-.827.432-1.643.568l-29.818 4.97c-4.124.687-7.384 3.866-8.175 7.971-5.119 26.557-15.412 51.404-30.593 73.849-2.341 3.462-2.283 8.014.146 11.415l17.571 24.601c.481.674.684 1.237.76 1.565l-34.744 34.743c-.327-.076-.89-.279-1.563-.76l-24.601-17.572c-3.402-2.43-7.955-2.487-11.416-.145-22.436 15.179-47.282 25.472-73.848 30.592-4.104.791-7.284 4.052-7.971 8.175l-4.97 29.817c-.136.817-.391 1.358-.569 1.644h-49.134c-.178-.286-.433-.827-.569-1.644l-4.97-29.817c-.687-4.124-3.867-7.384-7.971-8.175-26.566-5.121-51.413-15.414-73.848-30.592-3.462-2.343-8.015-2.284-11.416.145l-24.601 17.572c-.673.481-1.236.684-1.563.76l-34.744-34.743c.076-.328.279-.891.76-1.564l17.572-24.601c2.429-3.401 2.487-7.954.146-11.415-15.181-22.445-25.475-47.292-30.593-73.849-.791-4.105-4.052-7.284-8.175-7.971l-29.818-4.97c-.815-.136-1.356-.391-1.642-.568v-49.135c.286-.177.827-.432 1.643-.568l29.818-4.97c4.124-.687 7.384-3.866 8.175-7.971 5.119-26.557 15.412-51.404 30.593-73.849 2.341-3.461 2.283-8.014-.146-11.415l-17.571-24.6c-.481-.674-.685-1.238-.761-1.565l34.744-34.743c.327.076.89.279 1.563.76l24.601 17.572c3.4 2.429 7.954 2.488 11.416.145 22.436-15.179 47.282-25.472 73.848-30.592 4.104-.791 7.284-4.052 7.971-8.175l4.97-29.817c.136-.817.391-1.358.569-1.644h49.134c.178.286.433.827.569 1.644l4.97 29.817c.687 4.124 3.867 7.384 7.971 8.175 26.566 5.121 51.413 15.414 73.848 30.592 3.46 2.342 8.014 2.285 11.416-.145l24.601-17.572c.673-.481 1.236-.684 1.563-.76l34.744 34.743c-.076.328-.279.891-.76 1.564l-17.572 24.601c-2.429 3.401-2.487 7.953-.146 11.415 15.181 22.445 25.474 47.292 30.593 73.849.791 4.105 4.052 7.284 8.175 7.971l29.818 4.97c.816.136 1.357.391 1.643.568z" fill="#7510f7" data-original="#000000" style=""/><path d="m281.25 212.268c-4.781-2.762-10.898-1.123-13.66 3.66l-40.5 70.146c-2.762 4.783-1.123 10.899 3.66 13.66 4.698 2.737 10.883 1.166 13.66-3.66 0 0 40.5-70.146 40.5-70.146 2.762-4.783 1.124-10.899-3.66-13.66z" fill="#7510f7" data-original="#000000" style=""/><path d="m204.078 213.857c-3.905-3.905-10.237-3.905-14.142 0 0 0-35.074 35.073-35.074 35.073-3.872 3.725-3.875 10.418 0 14.143 0 0 35.074 35.073 35.074 35.073 1.953 1.953 4.512 2.929 7.071 2.929 8.699.143 13.399-10.916 7.071-17.071 0 0-28.003-28.002-28.003-28.002l28.003-28.002c3.904-3.906 3.905-10.238 0-14.143z" fill="#7510f7" data-original="#000000" style=""/><path d="m307.924 213.856c-3.905 3.905-3.905 10.237 0 14.143l28.002 28.002-28.002 28.002c-6.32 6.138-1.635 17.227 7.072 17.071 2.559 0 5.118-.976 7.071-2.929l35.073-35.073c3.905-3.905 3.905-10.237 0-14.143l-35.073-35.073c-3.905-3.905-10.237-3.905-14.143 0z" fill="#7510f7" data-original="#000000" style=""/><path d="m256.001 96.001c-88.224 0-160 71.776-160 160 8.044 211.97 311.988 211.912 320-.002 0-88.222-71.776-159.998-160-159.998zm0 300c-77.196 0-140-62.804-140-140 7.038-185.474 272.989-185.423 280 .002 0 77.194-62.804 139.998-140 139.998z" fill="#7510f7" data-original="#000000" style=""/></g></g></svg>
